#!OML:ASF E:/inclinewalkrobotboard/Project1/Captureday1/Session1/subject1.ASF
:FULLY-SPECIFIED
:DEGREES
163
root 0 0 0 1.0626649877323437 -3.6624317405609625 1.8652780581591124
lowerback 11.924707829437537 0.8590248825854683 -0.061505686901156875
upperback -4.229601076548933 1.0886860001742884 -0.5602109822564467
thorax -11.304023487833813 0.49718779000504904 -0.8028313832347436
lowerneck -5.701327222623469 1.4508079719895388 4.563387019824575
upperneck 18.100869219393946 2.8875255860557485 -8.306799367855128
head 6.6006775779057945 1.049673985424505 -3.2170767405676797
rclavicle -9.825577049182085E-16 -3.294146264183799E-16
rhumerus 20.14765199973042 14.692535221572616 -48.14374227473888
rradius 72.53051263114965
rwrist 26.738379087012255
rhand -34.76070892836449 -57.389299750903
rfingers 7.125020000000038
rthumb -7.922213565268031 -87.3060219871135
lclavicle 6.483595666804903E-16 -1.7282558748566255E-15
lhumerus 20.820762505255423 -12.71122743172797 45.32103448397707
lradius 69.9076117965431
lwrist -22.264692525521482
lhand -44.78437440042083 -69.79050611218868
lfingers 7.1250200000000286
lthumb -17.57597051695293 -40.593988077988705
rfemur -24.892752544760164 -2.213312940912632 17.206296806247902
rtibia 54.03321980821843
rfoot -29.08187009258963 -16.733278540544077
rtoes -17.684148515219142
lfemur -26.63782415064786 2.395737958460829 -18.29127828119381
ltibia 54.13739867329398
lfoot -31.078917996988185 -3.535058093017748
ltoes -19.67209986966773
164
root 0 0 0 1.0603479937212574 -3.667916694141178 1.8638656864097423
lowerback 11.924579834109263 0.8582012997592934 -0.06227896758184087
upperback -4.229047877927416 1.087685063399029 -0.558895478191439
thorax -11.30348529998185 0.49668963367394237 -0.8008798701308062
lowerneck -5.695405690193528 1.450329583650268 4.561213234230872
upperneck 18.099133974113666 2.8871284059855418 -8.305905862889782
head 6.59909076914143 1.0495654385367836 -3.2163708607046138
rclavicle -8.148706862852138E-16 -2.769202099720438E-16
rhumerus 20.132899295214173 14.689972184968074 -48.153559291716434
rradius 72.52118662348158
rwrist 26.728911811871697
rhand -34.757967139935225 -57.37037514757715
rfingers 7.125020000000038
rthumb -7.918868286841673 -87.28945333950057
lclavicle 9.967209947244059E-16 -1.6881755412248105E-15
lhumerus 20.831505959056233 -12.740108020219715 45.294004660028705
lradius 69.9361713881358
lwrist -22.27381169175971
lhand -44.76980032762016 -69.71083201444809
lfingers 7.1250200000000286
lthumb -17.562684366853535 -40.5114546185423
rfemur -24.872386818735368 -2.2091704477386243 17.21533858642095
rtibia 54.033563718235875
rfoot -29.052646022361575 -16.72144616009552
rtoes -17.668204558486757
lfemur -26.656686335173287 2.4025395141425614 -18.286382648361492
ltibia 54.22935107566666
lfoot -31.012981821975973 -3.574024016052108
ltoes -19.61524188830327
165
root 0 0 0 1.058623484237685 -3.6692216777772666 1.8641807922624833
lowerback 11.924930888404731 0.8581339333563536 -0.0607485431359526
upperback -4.227917098718374 1.087767142758741 -0.5586327886926249
thorax -11.302289089780029 0.49670588003716504 -0.8014130475305119
lowerneck -5.686988571358876 1.4489840238054243 4.563375175954697
upperneck 18.093266317213846 2.885471006432857 -8.31067334528464
head 6.59577186921603 1.048875444477154 -3.218421982931486
rclavicle -9.437929723059244E-16 -3.4352455660691053E-16
rhumerus 20.150905234613056 14.69864080388139 -48.14148359220015
rradius 72.53851224113033
rwrist 26.741261066362604
rhand -34.77017512418943 -57.41393163352751
rfingers 7.125020000000038
rthumb -7.930886185341958 -87.3292902205743
lclavicle 8.530218466007355E-16 -1.7538413171208343E-15
lhumerus 20.843899454938544 -12.738310512291594 45.292072609433426
lradius 69.93713623056036
lwrist -22.275291395173312
lhand -44.78002224835799 -69.75932778381495
lfingers 7.1250200000000286
lthumb -17.571297437926365 -40.56127687372524
rfemur -24.893059551506994 -2.212225411666619 17.209024069624856
rtibia 54.048420940245514
rfoot -29.07710331910724 -16.73232992064504
rtoes -17.670871681200214
lfemur -26.689434512722478 2.405824684838243 -18.294993860032505
ltibia 54.183395148163264
lfoot -31.05517278633646 -3.5368858138342136
ltoes -19.606812667563375
166
root 0 0 0 1.0573327327027013 -3.6715222458312655 1.8638962028665094
lowerback 11.92495596528642 0.8579110932396669 -0.06013110765091123
upperback -4.2270344293604385 1.0875839942196126 -0.5581433267833199
thorax -11.301278550464744 0.49660811544390665 -0.8011736319722566
lowerneck -5.68215174648445 1.448244660360066 4.563935714176764
upperneck 18.090124550657414 2.8846434630503497 -8.312724829929918
head 6.593936200933335 1.0485392989608164 -3.2192411047720335
rclavicle -9.335929485963235E-16 -3.406177426600087E-16
rhumerus 20.15392523600758 14.702315731086284 -48.142265684276296
rradius 72.54084313298999
rwrist 26.739394969156766
rhand -34.76779234976716 -57.41021774752087
rfingers 7.125020000000038
rthumb -7.928631804802748 -87.32515529958073
lclavicle 8.600564990483192E-16 -1.7510873897893855E-15
lhumerus 20.84523782187422 -12.740984083558514 45.29119528926283
lradius 69.93896124112008
lwrist -22.274759777963606
lhand -44.779620546468664 -69.75490203563501
lfingers 7.1250200000000286
lthumb -17.570915578659793 -40.55720054827125
rfemur -24.894119562665036 -2.2123866633148355 17.208420149103155
rtibia 54.049167165440345
rfoot -29.07864143657753 -16.733375720640698
rtoes -17.670791434122314
lfemur -26.68833790175504 2.4059053759942715 -18.295295861616786
ltibia 54.175326330523966
lfoot -31.059791852259053 -3.5318607906095076
ltoes -19.613021486524836
